<?xml version="1.0" encoding="utf-8"?><svg viewBox="0 0 42 43" xmlns="http://www.w3.org/2000/svg" xmlns:xlink="http://www.w3.org/1999/xlink"><style>:root>svg{display:none}:root>svg:target{display:block}</style><svg fill="none" viewBox="0 0 39 40" id="fb" xmlns="http://www.w3.org/2000/svg"><path d="M39 20C39 8.951 30.265 0 19.5 0 8.727 0 0 8.951 0 20c0 9.98 7.128 18.255 16.453 19.754V25.783h-4.952V20h4.952v-4.409c0-5.01 2.907-7.778 7.363-7.778 2.134 0 4.368.39 4.368.39v4.921H25.72c-2.419 0-3.174 1.544-3.174 3.125V20h5.407l-.869 5.781h-4.538v13.971C31.864 38.255 39 29.98 39 20z" fill="#fff"/></svg><svg fill="none" viewBox="0 0 40 41" id="ok" xmlns="http://www.w3.org/2000/svg"><path d="M20 40.917c-11.046 0-20-9.14-20-20.417C0 9.224 8.954.083 20 .083S40 9.223 40 20.5c0 11.276-8.954 20.417-20 20.417z" fill="#fff"/><path d="M19.06 24.575c-1.54-.165-2.926-.555-4.114-1.511-.148-.118-.3-.233-.434-.367-.52-.51-.574-1.1-.16-1.705.35-.519.94-.658 1.556-.362.119.06.232.13.34.209 2.214 1.564 5.256 1.606 7.48.069.214-.178.46-.31.726-.388.246-.073.509-.06.747.038.237.097.436.274.563.501.326.545.32 1.076-.08 1.499a6.027 6.027 0 01-2.174 1.445c-.776.31-1.628.466-2.47.57.128.143.188.212.268.294 1.142 1.18 2.29 2.356 3.43 3.54.388.404.47.904.256 1.374-.234.51-.758.85-1.27.813a1.226 1.226 0 01-.804-.423c-.862-.892-1.74-1.768-2.586-2.677-.246-.265-.366-.214-.582.015a178.19 178.19 0 01-2.638 2.723c-.398.402-.872.476-1.334.245a1.37 1.37 0 01-.574-.521 1.41 1.41 0 01-.206-.757 1.29 1.29 0 01.42-.857l3.388-3.49c.074-.077.144-.159.252-.277z" fill="#000" fill-opacity=".8"/><path d="M19.976 20.5a4.956 4.956 0 01-3.513-1.515 5.166 5.166 0 01.031-7.207 4.96 4.96 0 013.542-1.486c.66.003 1.313.14 1.92.402.609.263 1.16.645 1.622 1.125a5.184 5.184 0 011.436 3.642c-.014 2.79-2.274 5.05-5.038 5.039zm2.488-5.108a2.55 2.55 0 00-.185-.957 2.492 2.492 0 00-.53-.81 2.435 2.435 0 00-.796-.54 2.393 2.393 0 00-.937-.186 2.397 2.397 0 00-.944.189c-.3.126-.572.312-.8.547a2.497 2.497 0 00-.53.82 2.538 2.538 0 00-.178.965 2.536 2.536 0 00.728 1.762 2.397 2.397 0 001.738.713c.321 0 .64-.065.936-.19a2.43 2.43 0 00.792-.544 2.515 2.515 0 00.706-1.769z" fill="#000" fill-opacity=".8"/></svg><svg fill="none" viewBox="0 0 42 43" id="tw" xmlns="http://www.w3.org/2000/svg"><path d="M21 .938C9.403.938 0 10.145 0 21.5s9.403 20.563 21 20.563S42 32.855 42 21.5C42 10.145 32.597.937 21 .937zm10.092 15.5c.014.215.014.44.014.66 0 6.738-5.24 14.5-14.817 14.5-2.953 0-5.69-.84-7.997-2.286.422.046.825.064 1.256.064 2.438 0 4.679-.808 6.464-2.175-2.287-.046-4.209-1.515-4.865-3.535.801.115 1.523.115 2.348-.091a5.223 5.223 0 01-2.996-1.773 5.03 5.03 0 01-1.17-3.23v-.065a5.3 5.3 0 002.348.648 5.14 5.14 0 01-1.703-1.836 5.017 5.017 0 01.09-4.976 14.725 14.725 0 004.788 3.783 15.027 15.027 0 005.946 1.546c-.735-3.465 1.908-6.27 5.086-6.27 1.5 0 2.85.615 3.802 1.607a10.419 10.419 0 003.305-1.226 5.095 5.095 0 01-2.288 2.805 10.47 10.47 0 003-.794 10.79 10.79 0 01-2.61 2.643z" fill="#fff"/></svg><svg fill="none" viewBox="0 0 41 43" id="vk" xmlns="http://www.w3.org/2000/svg"><path d="M20.5.86C9.63.86.82 10.1.82 21.5S9.63 42.14 20.5 42.14 40.18 32.9 40.18 21.5 31.37.86 20.5.86zm7.569 23.287s1.74 1.801 2.169 2.638c.012.017.018.034.022.043.174.307.215.546.13.724-.144.297-.636.443-.804.456H26.51c-.214 0-.66-.058-1.202-.45-.416-.305-.826-.806-1.226-1.294-.596-.726-1.113-1.354-1.633-1.354a.597.597 0 00-.195.032c-.394.133-.898.722-.898 2.292 0 .49-.37.772-.63.772H19.32c-.48 0-2.978-.177-5.192-2.625-2.71-3-5.15-9.015-5.17-9.071-.154-.39.163-.598.51-.598h3.106c.414 0 .55.264.643.499.111.273.517 1.359 1.183 2.58 1.08 1.99 1.743 2.8 2.274 2.8a.594.594 0 00.285-.078c.693-.404.563-2.995.533-3.533 0-.1-.002-1.159-.357-1.666-.254-.368-.687-.507-.95-.559.107-.154.247-.278.409-.363.475-.25 1.332-.286 2.183-.286h.474c.922.013 1.16.075 1.494.163.677.17.69.628.631 2.195-.018.445-.037.949-.037 1.542 0 .129-.006.267-.006.413-.02.797-.045 1.703.492 2.074.07.047.151.071.234.071.187 0 .748 0 2.27-2.737a21.46 21.46 0 001.22-2.739c.03-.056.12-.228.227-.294a.524.524 0 01.254-.063h3.65c.399 0 .671.063.723.224.09.256-.017 1.036-1.684 3.403l-.744 1.03c-1.51 2.077-1.51 2.183.095 3.758z" fill="#fff"/></svg></svg>