<svg width="21" height="31" viewBox="0 0 21 31" fill="none" xmlns="http://www.w3.org/2000/svg">
<path fill-rule="evenodd" clip-rule="evenodd" d="M10.8204 28.1795C10.4467 28.1795 10.0883 28.0311 9.8241 27.7668C9.55986 27.5026 9.41142 27.1442 9.41142 26.7705L9.41142 1.40895C9.41142 1.03527 9.55986 0.676891 9.8241 0.412657C10.0883 0.148422 10.4467 -2.3044e-05 10.8204 -2.30114e-05C11.1941 -2.29787e-05 11.5525 0.148422 11.8167 0.412657C12.0809 0.676891 12.2294 1.03527 12.2294 1.40895L12.2294 26.7705C12.2294 27.1442 12.0809 27.5026 11.8167 27.7668C11.5525 28.0311 11.1941 28.1795 10.8204 28.1795Z" fill="white"/>
<path fill-rule="evenodd" clip-rule="evenodd" d="M11.8179 30.5861C11.687 30.7173 11.5315 30.8214 11.3603 30.8924C11.1892 30.9634 11.0057 31 10.8203 31C10.635 31 10.4515 30.9634 10.2803 30.8924C10.1091 30.8214 9.95365 30.7173 9.82277 30.5861L1.36891 22.1322C1.10434 21.8676 0.95571 21.5088 0.95571 21.1346C0.95571 20.7605 1.10434 20.4017 1.36891 20.1371C1.63348 19.8725 1.99231 19.7239 2.36647 19.7239C2.74062 19.7239 3.09945 19.8725 3.36402 20.1371L10.8203 27.5962L18.2766 20.1371C18.5412 19.8725 18.9 19.7239 19.2742 19.7239C19.6483 19.7239 20.0072 19.8725 20.2717 20.1371C20.5363 20.4017 20.6849 20.7605 20.6849 21.1346C20.6849 21.5088 20.5363 21.8676 20.2717 22.1322L11.8179 30.5861Z" fill="white"/>
</svg>
