<svg width="40" height="40" viewBox="0 0 40 40" fill="none" xmlns="http://www.w3.org/2000/svg">
<path fill-rule="evenodd" clip-rule="evenodd" d="M27.425 12.4252C27.7749 12.0784 28.2472 11.8832 28.7398 11.8818C29.2325 11.8805 29.7059 12.0731 30.0576 12.4179C30.4094 12.7628 30.6113 13.2323 30.6197 13.7249C30.6281 14.2175 30.4423 14.6935 30.1025 15.0502L20.1225 27.5252C19.951 27.71 19.744 27.8582 19.5138 27.9611C19.2837 28.064 19.0352 28.1195 18.7831 28.1242C18.5311 28.1288 18.2807 28.0826 18.0469 27.9883C17.8131 27.894 17.6007 27.7535 17.4225 27.5752L10.81 20.9602C10.6258 20.7886 10.478 20.5816 10.3755 20.3516C10.2731 20.1216 10.218 19.8733 10.2135 19.6215C10.2091 19.3698 10.2554 19.1197 10.3497 18.8862C10.444 18.6527 10.5844 18.4407 10.7624 18.2626C10.9404 18.0846 11.1525 17.9442 11.386 17.8499C11.6195 17.7556 11.8695 17.7093 12.1213 17.7137C12.3731 17.7182 12.6213 17.7733 12.8513 17.8758C13.0813 17.9782 13.2883 18.126 13.46 18.3102L18.695 23.5427L27.3775 12.4802C27.393 12.4608 27.4097 12.4425 27.4275 12.4252H27.425Z" fill="#FF0098"/>
</svg>
