<svg width="81" height="79" viewBox="0 0 81 79" xmlns="http://www.w3.org/2000/svg">
<path d="M45.2587 39.5008L59.7712 25.3795C60.4067 24.7597 60.7638 23.919 60.7638 23.0424C60.7638 22.1659 60.4067 21.3252 59.7712 20.7054C59.1357 20.0855 58.2737 19.7373 57.375 19.7373C56.4762 19.7373 55.6143 20.0855 54.9787 20.7054L40.5 34.8595L26.0212 20.7054C25.3857 20.0855 24.5237 19.7373 23.625 19.7373C22.7262 19.7373 21.8643 20.0855 21.2287 20.7054C20.5932 21.3252 20.2362 22.1659 20.2362 23.0424C20.2362 23.919 20.5932 24.7597 21.2287 25.3795L35.7412 39.5008L21.2287 53.622C20.9124 53.928 20.6613 54.2921 20.49 54.6932C20.3186 55.0943 20.2304 55.5246 20.2304 55.9591C20.2304 56.3936 20.3186 56.8239 20.49 57.225C20.6613 57.6261 20.9124 57.9902 21.2287 58.2962C21.5425 58.6047 21.9158 58.8496 22.327 59.0167C22.7383 59.1838 23.1794 59.2699 23.625 59.2699C24.0705 59.2699 24.5116 59.1838 24.9229 59.0167C25.3342 58.8496 25.7075 58.6047 26.0212 58.2962L40.5 44.142L54.9787 58.2962C55.2925 58.6047 55.6658 58.8496 56.077 59.0167C56.4883 59.1838 56.9294 59.2699 57.375 59.2699C57.8205 59.2699 58.2617 59.1838 58.6729 59.0167C59.0842 58.8496 59.4575 58.6047 59.7712 58.2962C60.0876 57.9902 60.3386 57.6261 60.51 57.225C60.6813 56.8239 60.7695 56.3936 60.7695 55.9591C60.7695 55.5246 60.6813 55.0943 60.51 54.6932C60.3386 54.2921 60.0876 53.928 59.7712 53.622L45.2587 39.5008Z"/>
</svg>
