<svg width="39" height="40" viewBox="0 0 39 40" fill="none" xmlns="http://www.w3.org/2000/svg">
<path d="M39 20C39 8.95125 30.2652 0 19.5 0C8.72747 0 0 8.95125 0 20C0 29.98 7.12847 38.255 16.4531 39.7538V25.7825H11.5013V20.0013H16.4531V15.5925C16.4531 10.5813 19.3598 7.81375 23.8156 7.81375C25.9496 7.81375 28.1836 8.20375 28.1836 8.20375V13.125H25.7205C23.3025 13.125 22.5469 14.6688 22.5469 16.25V20H27.9545L27.0855 25.7813H22.5469V39.7525C31.8642 38.2538 39 29.9788 39 19.9988V20Z" fill="white"/>
</svg>
