<svg width="42" height="43" viewBox="0 0 42 43" fill="none" xmlns="http://www.w3.org/2000/svg">
<path d="M21 0.9375C9.40313 0.9375 0 10.1447 0 21.5C0 32.8553 9.40313 42.0625 21 42.0625C32.5969 42.0625 42 32.8553 42 21.5C42 10.1447 32.5969 0.9375 21 0.9375ZM31.0922 16.4374C31.1062 16.6531 31.1062 16.878 31.1062 17.0983C31.1062 23.8362 25.8656 31.5977 16.2891 31.5977C13.3359 31.5977 10.5984 30.7577 8.29219 29.3119C8.71406 29.3578 9.11719 29.3762 9.54844 29.3762C11.9859 29.3762 14.2266 28.5684 16.0125 27.2006C13.725 27.1547 11.8031 25.6859 11.1469 23.6664C11.9484 23.7812 12.6703 23.7812 13.4953 23.5746C12.3175 23.3403 11.2588 22.7139 10.4991 21.8019C9.73949 20.8899 9.32572 19.7485 9.32812 18.5717V18.5074C10.0172 18.8884 10.8281 19.1225 11.6766 19.1546C10.9633 18.6892 10.3784 18.0586 9.97365 17.3188C9.5689 16.579 9.35683 15.7528 9.35625 14.9136C9.35625 13.9635 9.60938 13.096 10.0641 12.3433C11.3714 13.9191 13.0028 15.208 14.8522 16.1261C16.7016 17.0441 18.7275 17.5709 20.7984 17.6721C20.0625 14.2067 22.7063 11.4023 25.8844 11.4023C27.3844 11.4023 28.7344 12.0174 29.6859 13.0088C30.8625 12.7931 31.9875 12.3616 32.9906 11.7833C32.6016 12.9629 31.7859 13.9589 30.7031 14.5877C31.7531 14.4775 32.7656 14.193 33.7031 13.7937C32.9953 14.8126 32.1094 15.7168 31.0922 16.4374Z" fill="white"/>
</svg>
