<svg width="41" height="43" viewBox="0 0 41 43" fill="none" xmlns="http://www.w3.org/2000/svg">
<path d="M20.5 0.859863C9.63094 0.859863 0.820038 10.1006 0.820038 21.4999C0.820038 32.8992 9.63094 42.1399 20.5 42.1399C31.3691 42.1399 40.18 32.8992 40.18 21.4999C40.18 10.1006 31.3691 0.859863 20.5 0.859863ZM28.0686 24.1465C28.0686 24.1465 29.8091 25.9482 30.2375 26.7846C30.2498 26.8018 30.256 26.819 30.2601 26.8276C30.4343 27.135 30.4753 27.3737 30.3892 27.5521C30.2457 27.8488 29.7537 27.995 29.5856 28.0079H26.5106C26.2974 28.0079 25.8505 27.9499 25.3093 27.5586C24.8932 27.2533 24.4832 26.7523 24.0834 26.2643C23.4869 25.5376 22.9703 24.9098 22.4496 24.9098C22.3835 24.9096 22.3177 24.9205 22.2548 24.942C21.8612 25.0753 21.3569 25.6644 21.3569 27.2339C21.3569 27.7241 20.9879 28.0058 20.7276 28.0058H19.3192C18.8395 28.0058 16.3406 27.8295 14.1266 25.3806C11.4165 22.3814 8.97699 16.3657 8.95649 16.3098C8.80274 15.9206 9.12049 15.7121 9.46694 15.7121H12.5727C12.9868 15.7121 13.1221 15.9765 13.2164 16.2109C13.3271 16.4839 13.733 17.5697 14.3992 18.7909C15.4796 20.7818 16.1417 21.5902 16.6727 21.5902C16.7722 21.5889 16.87 21.5624 16.9576 21.5128C17.6505 21.1086 17.5214 18.5178 17.4906 17.9803C17.4906 17.8793 17.4886 16.8215 17.1339 16.3141C16.8797 15.9464 16.4472 15.8067 16.1848 15.7551C16.291 15.6014 16.4309 15.4767 16.5927 15.3917C17.0683 15.1423 17.9252 15.1058 18.776 15.1058H19.2495C20.172 15.1187 20.4098 15.181 20.744 15.2692C21.4205 15.439 21.4348 15.897 21.3754 17.4643C21.3569 17.9094 21.3385 18.4125 21.3385 19.0059C21.3385 19.1349 21.3323 19.2725 21.3323 19.4187C21.3118 20.2163 21.2872 21.1215 21.8243 21.4934C21.8944 21.5395 21.9754 21.5641 22.058 21.5644C22.2446 21.5644 22.8063 21.5644 24.3274 18.8274C24.7965 17.9465 25.2042 17.031 25.5471 16.0883C25.5779 16.0324 25.6681 15.8604 25.7747 15.7938C25.8534 15.7517 25.9406 15.7303 26.0289 15.7314H29.6799C30.0776 15.7314 30.3503 15.7938 30.4015 15.955C30.4917 16.2109 30.3851 16.9913 28.7185 19.3585L27.9743 20.3883C26.4635 22.4652 26.4635 22.5706 28.0686 24.1465Z" fill="white"/>
</svg>
